<?xml version="1.0" encoding="UTF-8"?>
<svg id="Camada_1" xmlns="http://www.w3.org/2000/svg" version="1.1" viewBox="0 0 1280 1280">
  <!-- Generator: Adobe Illustrator 29.7.0, SVG Export Plug-In . SVG Version: 2.1.1 Build 138)  -->
  <path d="M1083.98,481.4c-.38,1.3-1.94,1.53-3.26,1.33-3.24-.49-14.66-6.2-18.96-7.92-104.63-41.87-223.45-20.88-301.83,61.57-38.29,40.27-57.25,86.36-68.7,140.27-.79,3.72,1.37,9.25-3.78,10.22l-73.36-.09c-3.83-10.84-7.59-22.7-12.38-33.12-53.02-115.43-182.87-161.54-299.43-109.96-43.48,19.24-76.35,49-103.59,87.41-.81,1.14-.72,2.21-2.72,1.78v-77.5c27.89-31.05,64.07-55.19,103.47-69.53,130.76-47.61,289.99,6.62,346.3,136.77,2.09,4.82,2.81-3.13,3.54-4.94,10.38-26.08,22.4-51.84,37.73-75.27,81.69-124.86,237.07-173.9,377.93-123.99,3.07,1.09,19.04,6.71,19.04,8.96v54Z"/>
  <path d="M195.98,438.4c16.6-11.51,34.47-21.82,53.02-29.98,77.19-33.99,167.04-40.53,248.43-17.46,48.36,13.71,93.28,38.12,132.03,69.94,15.67-17.66,31.03-35.52,48.51-51.5,49.11-44.9,114.92-80.43,180.81-95.19,74.03-16.58,152.55-13.05,224.74,9.66.09,7.28,1.81,60.02-.58,62.01-8.3-1.57-16.29-5.52-24.52-7.91-160.84-46.85-329.38,18.84-412.83,163.07-.96,1.66-3.31,8.54-3.68,8.84-.3.24-2.22.14-2.77-.17-4.89-7.02-10.18-14.25-15.83-20.68-91.7-104.22-257.41-126.29-377.22-58.49-17.5,9.9-31.37,21.98-47.12,33.88-1,.76-1.25,1.94-3,1.5v-67.5Z"/>
  <path d="M367.98,771.9v-15.5c0-2.61-7.86-.1-8.86-3.14-.54-1.64-.55-21.56-.11-23.83.21-1.1,1.73-3.53,2.47-3.53h39c.11,0,1.5,1.39,1.5,1.5v28.5c0,.35-7-.35-7,0v79.5c0,.17-1.54,1.76-2.02,1.98-2.7,1.26-24.83,1.07-26.96-1.01l-28.02-50.48v22c0,.47,8.46-.82,9.04,1.67.51,2.19.41,22.31-.07,24.81-.21,1.1-1.73,3.53-2.47,3.53h-40c-.11,0-1.5-1.39-1.5-1.5v-28.5c0-.35,7,.35,7,0v-52c0-.35-7,.35-7,0v-28.5c0-.11,1.39-1.5,1.5-1.5h37c3.78,5.59,7.08,11.76,10.32,17.68,4.43,8.11,8.62,19.03,13.42,26.57.79,1.25.91,2.11,2.76,1.74Z"/>
  <path d="M237.98,754.9v53c3.27-.58,10.19,1.88,11-2.5l.07-49.89c-.32-1.12-2.84-.46-3.62-1.53-.7-.96-.84-20.97-.49-23.62.43-3.27,1.19-4.06,4.5-4.5,11.46-1.51,26.18,1.18,38.02.07,1.24.16,2.48.83,3.03,1.97.73,1.51.98,24.47.36,26.37-.92,2.79-6.42,1.34-8.87,1.63l-.17,62.37c-5.83,3.68-14.13,17.15-19.87,19.09-3.24,1.1-33.42,1.15-37.21.28-4.04-.93-15.69-16-19.54-19.44l-.2-62.3c-2.45-.3-7.95,1.16-8.87-1.63-.61-1.86-.39-24.84.36-26.37.81-1.65,2.35-1.83,3.96-2.04,3.9-.5,37.77-.33,39.55.54,1.65.81,1.83,2.35,2.04,3.96.46,3.57.59,18.86-.03,22.06-.47,2.42-1.73,2.55-4.01,2.49Z"/>
  <path d="M808.98,762.9c-.3-.25-.8-6.7-1.05-6.95-.58-.56-9.97.3-11.96-.06v10.01h23.51c1.1,0,1.43,2.44,1.55,3.45.96,8.17-.81,18.16-.05,26.55h-25v12.01c1.9-.32,11.58.43,12,0,.3-.31-.83-8.01,1.5-8.01h28.5v35.5c0,.81-3.18,2.94-4.45,2.55-25.79-.74-51.97,1.27-77.55-1.05v-29c0-.37,7,.81,7-1.5v-50.5c0-.35-7,.35-7,0v-30h80.5c.11,0,1.5,1.39,1.5,1.5v34c0,.11-1.39,1.5-1.5,1.5-3.86,0-26.45.89-27.5,0Z"/>
  <path d="M472.98,837.9c-.82-3.67-2.07-28.94-1-30,.63-.62,8.42,1.43,9.46-2.04l25.06-77.94c.53-.82,1.2-1.53,2.18-1.82,2.59-.77,22.34-.67,25.86-.25,1.1.13,2.19.02,2.95,1.05l24.59,80.91c.79.69,9.9-.4,9.9.1v27.5c0,.17-1.54,1.76-2.02,1.98-2.32,1.09-33.72.94-38.53.56-1.93-.15-3.62-.59-5.45-1.05v-28c0-.3,5.67.33,6,0-.02-1.44.4-3.63-.94-4.56-1.04-.72-23.92-2.8-21.06,4.56.87.23,6-.29,6,0v29h-43ZM522.97,778.9c.3-.29-.1-7.79-1.98-7.99.12,4.77-5.47,9.13,1.98,7.99Z"/>
  <path d="M679.48,792.9c-1.06-.3-13.87-15.23-14.26-16.74-.9-3.55-.71-26.68.23-30.28.29-1.12,1.34-3,2.1-3.9,1.76-2.08,11.1-11.36,13.19-13.09,1.83-1.52,4.28-2.72,6.71-3.01,5.6-.68,29.9-.85,34.81.24,5.32,1.18,14.34,14.11,18.71,18.29v18.5h-29.5c-2.2,0-1.24-6.74-1.49-7.01-.42-.43-10.11.33-12.01,0,.32,2.33-.89,8.29.94,9.57,2.92,2.03,23.87-.99,29.36.64,1.65.49,13.51,12.91,14.16,14.84,1.12,3.32,1.18,29.15.59,33.5s-17.82,22.2-21.79,23.21c-3.32.85-33.26.74-36.31-.2-1.27-.39-17.95-16.78-17.95-18.05v-21.5h31c-1.4,11.89,1.84,10.25,12,10v-15h-30.5Z"/>
  <path d="M592.48,792.9c-1.05-.18-13.99-14.67-14.29-15.71-.8-2.71-.75-26.17-.26-29.85.18-1.36.31-1.82,1-3,.95-1.64,12.85-13.71,14.84-15.44,1.63-1.42,3.37-2.75,5.66-3.06,10.67-1.42,24.8,1,35.85.26,2.46,2,18.7,16.99,18.7,18.3v17c0,.11-1.39,1.5-1.5,1.5h-28c-2.2,0-1.24-6.74-1.49-7.01-.42-.43-10.11.33-12.01,0v10.01h31.01c1.39,4.48,11.51,10.47,12.8,14.7.97,3.17.71,30.25.2,34.82-.15,1.31-.23,2.62-.96,3.77-5.48,3.63-15.69,17.99-21.48,18.77-4.52.6-31.09.59-34.61-.5-1.93-.6-19.95-18.64-19.95-20.05v-18c0-.11,1.39-1.5,1.5-1.5h30c2.56,0,1.03,9.54,1.49,10,.4.4,9.21-.3,11.01,0v-15h-29.5Z"/>
  <path d="M973.98,725.9c.79,3.63,2.1,28.97,1.01,30.01-.31.29-3.07-.21-4.02,0-1.45,1.41,6.1,20.63,6.51,24.01,1.24.03,7.71-21.47,7.52-23.5-.11-1.18-2.81.01-3.87-.65-1.95-1.21-1.52-25.94-.15-29.87h46v30c0,.49-9.08-.6-9.89.12l-25.03,80.47c-2.27,2.81-21.55,1.2-26.1.93l-2.03-2.97-24.84-77.95-11.11-.6v-30h46Z"/>
  <path d="M899.98,755.9c-.44.44-9-.45-9,0v50.5c0,2.2,11,2.2,11,0v-16.5h29v46.5c0,.11-1.39,1.5-1.5,1.5h-76c-.18,0-2.5-2.32-2.5-2.5v-27.5c0-.35,7,.35,7,0v-52c0-.37-5.93,1.2-6.86-1.64-1.74-5.3.31-22.13.86-28.36h45.5c.18,0,2.5,2.32,2.5,2.5,0,3.75.97,26.53,0,27.5Z"/>
  <path d="M1081.48,725.9c.99.28,2.25,2.35,2.47,3.53.59,3.07.28,25.47-1.12,26.33-1.07.66-6.86-.2-6.86.14v52c0,.4,8-.4,8,0v27.5c0,.17-1.54,1.76-2.02,1.98-2.34,1.09-35.56.96-40.53.56-1.93-.15-3.62-.59-5.45-1.05v-29c0-.35,7,.35,7,0v-52c0-.35-7,.35-7,0v-28.5c0-.11,1.39-1.5,1.5-1.5h44Z"/>
  <path d="M462.98,755.9c-.36.36-7-.35-7,0v50.5c0,2.31,7,1.13,7,1.5v29c-.98-.32-2.17,1-2.5,1h-43.5c-.8-3.61-2.09-28.96-1.01-30.01.27-.26,7.01.71,7.01-1.49v-50.5c0-.35-7,.35-7,0v-27.5c0-.33,1.32-1.52,1-2.5h44.5c.11,0,1.5,1.39,1.5,1.5,0,3.87,1.01,27.49,0,28.5Z"/>
  <path d="M340.98,900.4c.41-2.38,2.66-2.91,4.73-3.23,9.22-1.42,22.75-2.21,31.56.94,14.9,5.32,15.75,30.41.72,36.28,4.24,8.35,10.49,16.33,11.99,25.51h-14.5c-3.27-2.47-11.19-21.91-12.7-22.78s-6.8-.21-6.8,1.28v21.5c-5.02-.13-10.16.62-15-1v-58.5ZM371.68,922.61c1.71-2.12,1.83-7.32.77-9.69-1.89-4.26-12.37-4.57-16.36-2.91.2,2.84-1.11,13.11.83,14.46,2.13,1.48,12.71.69,14.76-1.85Z"/>
  <path d="M448.98,897.9c16.6-3.1,42.79-5.18,47.51,15.99,1.09,4.88,1.18,23.25.26,28.28-3.92,21.51-31.45,20.65-47.77,16.73v-61ZM463.98,946.9c3.75-.52,9.63.98,12.98-.52,6.88-3.08,6.31-28.05,2.45-33.41-3.07-4.27-15.43-4.86-15.43-3.07v37Z"/>
  <path d="M746.42,956.35c-9.07,6.79-26.69,6.19-35.02-2.39-1-1.02-1.1-2.53-1.81-3.69-.31-.5-1.56-.64-1.92-1.59-2.85-7.44-3.33-21.12-2.45-29.05.18-1.58,2-10.35,2.45-11.52.15-.39,4.72-5.92,5.32-6.45,10.13-8.97,32.71-7.3,39.4,5.33,6.44,12.17,6.13,40.3-5.96,49.35ZM737.63,912.25c-3.3-3.89-14.08-2.85-15.62,1.42-1.53,4.24-1.73,25.48.02,29.41,1.92,4.32,9.15,4.84,13.25,3.62,7.09-2.11,6.97-29.01,2.35-34.46Z"/>
  <path d="M942.62,952.56c-6.98,10.09-24.7,9.64-34.84,5.26-.19-.08-3.35-2.06-3.5-2.2-.49-.48-.2-1.74-.64-2.31-7.95-10.47-7.86-21.54-6.64-34.88,2.78-30.4,46.43-28.14,49.9-3.93.77,5.4.74,25.36-.59,30.24-.35,1.29-2.91,6.7-3.69,7.83ZM927.77,946.68c.65-.38,3.94-6,4.15-7.34.58-3.6.61-19.37-.15-22.73-2.08-9.21-17.03-9.24-18.77-.19-.52,2.69-.46,22.47.2,24.76.23.8,3.7,5.3,4.45,5.55,1.24.43,9.23.46,10.13-.06Z"/>
  <path d="M687.68,898.21c5.6,3.94,8.88,28.56,10.55,35.94.83,3.65,7.6,23.88,5.75,25.75-2.86-.29-14.55.82-15.84-1.18-.89-1.38-1.07-10.75-2.64-12.85-1.07-1.43-14.29-1.48-15.59-.54-2.5,1.82-2.91,13.24-3.52,13.67-2.77,1.97-11.73.37-15.42.89-.86-.87,3.79-21.02,4.47-24.03,1.48-6.6,7.76-34.8,11.84-37.65s16.16-2.98,20.4,0ZM678.98,909.89h-2.99c.69,7.62-2.68,14.65-4,22h11c-1.14-7.37-4.32-14.36-4-22Z"/>
  <path d="M444.98,959.9h-15l-3.57-15.02c-3.41.7-13.11-1.08-15.47.48s-2.58,12.96-3.54,13.66c-1.92,1.4-15.45,1.23-16.42-.13-.35-1.61,1.5-2.58,1.74-3.75,2.42-11.89,4.52-23.62,7.55-35.45,1.22-4.76,4.51-19.69,8.48-21.78,7.21-3.79,20.63-2.84,23.76,5.94s4.53,21.03,6.71,30.29c1.99,8.42,5.83,17.03,5.75,25.75ZM423.98,931.9l-5.5-21.99-5.5,21.99h11Z"/>
  <path d="M607.98,959.91c-3.18-.6-11.81,1.03-14.05-.46s-3.67-14.45-4.54-14.6l-15.28.2c-1.79,1.97-3.13,13.55-3.72,13.98-1.92,1.4-15.46,1.22-16.42-.13l4.9-16.58c1.73-7.76,6.78-41.19,12.87-44.39,6.72-3.53,20.34-2.93,23.45,5.26,4.58,12.08,7.23,30.2,10.02,42.98.99,4.56,3.85,8.58,2.77,13.74ZM586.97,931.9l-3.46-16.03-2.52-6.96-5.01,22.98h11Z"/>
  <path d="M503.98,896.9c2.96.5,13.15-1.1,14.56.94,2.22,3.19-.82,37.01.49,43.51,1.15,4.3,4.17,6.32,8.55,6.45,5.19.15,8.51-1.07,9.34-6.47,1.2-7.8-1.7-40.13.95-43.85.76-1.07,13.68-1.08,14.68.35,1.24,1.78.89,38.86.33,43.45-.74,6.04-3.56,9.66-6.18,14.33-6.91,4.28-15.49,6.39-24.16,5.23-1.72-.23-9.01-2.6-10.52-3.48-1.82-1.08-8.04-9.65-8.04-10.96v-49.5Z"/>
  <path d="M333.98,958.9c-4.19-.87-7.64,1.64-11.49,2.01-27.75,2.64-36.15-11.59-34.56-37.56,1.79-29.08,21.92-29.79,46.04-25.44v11.99s-23.49,0-23.49,0c-1.4,0-6.07,5.48-6.45,7.55-.94,5.19-.81,26.06,3.94,28.96,2.31,1.41,8.12.01,11.01.49v-19.5c0-2.26,15-2.26,15,0v31.5Z"/>
  <path d="M845.98,958.9v-58.5c0-4.23,20.73-4.75,24.48-4.48,9.09.63,18.48,3.75,22,13,5.51,14.51-2.84,27.37-18,28.96-2.28.24-12.48-.87-12.48,1.52v19c0,2.52-13.57,1.66-16,.5ZM861.98,908.9v15.5c0,2.09,16.62,4.43,16.06-7.99-.38-8.45-9.76-7.74-16.06-7.51Z"/>
  <path d="M797.48,933.9c-2.37.74-2.82,12.11,2,13,10.43,1.93,24.45-6.31,21.56,11.39-11.28,4.65-35.86,5.38-39.59-9.36-1.33-5.27-1.25-32.41-.5-38.55,1.2-9.79,9.67-13.73,18.54-14.46,2.79-.23,20.07.52,21.05,1.92.9,1.3.89,9.66-.5,10.63-2.93,2.04-17.32-1.45-21.76,1.75-2.97,2.14-3.15,11.69-.81,11.69h22.5v12c-5.67,1.09-17.75-1.47-22.5,0Z"/>
  <path d="M977.98,946.9c-.28-2.31.71-6.07-.48-8.02-.67-1.09-12.05-6.89-14.42-8.58-7.27-5.17-11.18-8.21-11.17-17.9.03-20.66,27.42-16.92,41.02-14.46l.05,11.95h-25c.24,1.69-.56,4.41.22,5.79,1.31,2.31,18.2,9.26,21.78,12.99,6.92,7.22,6.91,19.22,0,26.44-5.22,5.45-17.37,6.45-24.55,5.82-1.43-.13-10.8-1.9-11.29-2.2-1.85-1.17-1.24-9.58-.17-11.84h24Z"/>
  <path d="M648.98,946.9l-.04,11.96c-12.78,3.96-30.64,3.33-36.98-10.43-4.63-10.05-4.45-31.62.63-41.43,6.18-11.95,25.37-13.3,36.44-8.43l-.04,11.33h-18.5c-.28,0-3.54,3.36-3.92,4.08-2.54,4.78-2.87,32.92,2.92,32.92h19.5Z"/>
  <path d="M675.7,880.22c1.09.4,5.81,5.45,8.76,4.7-.37-5.04,6.07-7.04,9.59-4.59,1.15.8,1.02,2.74,1.02,4.05-.04,8.22-6.09,10.63-13.63,9.55-3.05-.44-9.98-6.58-11.45-5.05-1.13,1.18,1.64,7.44-8.85,4.87-3.88-9.56,5.36-16.88,14.57-13.54Z"/>
  <path d="M932.33,885.25c-6.39,6.87-6.77,10.41-18.35,8.65,1.24-10.28,11.03-17.01,21.37-13.86,4.06,1.24-1.8,3.91-3.01,5.22Z"/>
  <path d="M640.97,961.91c.92,4.8-3.7,5.26-4.72,6.27-.48.47-.19,1.9-.63,2.32-5.68,5.47-9.39,6.98-17.64,4.39-.57-.77,8.62-11.84,10.02-12.47,3.35-1.51,9.22,0,12.97-.52Z"/>
</svg>